<svg width="51" height="72" viewBox="0 0 51 72" fill="none" xmlns="http://www.w3.org/2000/svg">
<g clip-path="url(#clip0_104_3067)">
<path fill-rule="evenodd" clip-rule="evenodd" d="M23.154 3.34951C24.6354 2.75436 26.2687 2.51315 27.8896 2.65017C31.3104 2.88064 34.5603 4.05862 37.1735 6.01518C39.7866 7.97173 41.6287 10.6064 42.4355 13.5413C43.8009 17.9203 43.895 22.6409 43.9857 27.1963V27.1971C43.9977 27.8018 44.0097 28.4036 44.0246 29.0013C44.1333 33.415 44.143 37.8287 44.1527 42.2149V42.2178C44.1553 43.3905 44.1579 44.5613 44.1623 45.7295C44.1623 47.5444 44.1917 49.3646 44.221 51.1869V51.187C44.2946 55.7499 44.3683 60.3257 43.9822 64.8635C43.8975 65.9638 45.7091 65.8705 46.5566 65.7959C47.4042 65.7213 49.9997 65.1432 50.0951 64.0989C50.4795 59.4987 50.4156 54.8597 50.3519 50.2332C50.333 48.8672 50.3142 47.5023 50.307 46.1398C50.2983 44.5002 50.2943 42.8402 50.2904 41.1684V41.1682C50.2799 36.7456 50.2692 32.2398 50.1693 27.8078C50.1536 27.1266 50.1426 26.4381 50.1315 25.7445V25.7437C50.0527 20.8165 49.9698 15.6335 48.1775 11.0236C47.3814 8.92095 46.0906 6.98961 44.3893 5.35562C42.6879 3.72162 40.6143 2.4217 38.3037 1.54058C35.5411 0.514503 32.5714 -0.00948434 29.5729 0.000129944C26.5744 0.00974426 23.6091 0.552759 20.8551 1.59652C20.1558 1.85761 18.3125 2.63155 19.1388 3.46143C19.9652 4.29131 22.3171 3.68521 23.154 3.36818V3.34951ZM36.0472 67.5583C34.456 68.1404 32.7349 68.3955 31.0149 68.3042C29.0285 68.2091 27.0819 67.7752 25.2834 67.0268C23.2185 66.1395 21.4003 64.8635 19.9577 63.2893C18.5151 61.715 17.4832 59.8809 16.9352 57.9167C15.5614 53.5109 15.4747 48.7741 15.3908 44.1962C15.3802 43.6197 15.3697 43.0458 15.3567 42.4753C15.2578 38.1261 15.2486 33.777 15.2395 29.4541C15.2394 29.4337 15.2394 29.4133 15.2393 29.3929H19.0858C20.6109 29.4263 22.1148 29.0735 23.4188 28.3766C23.7049 28.2087 24.2452 27.8917 24.1287 27.5373C24.0121 27.183 23.3341 27.1177 23.0692 27.1177H15.234C15.2327 26.6605 15.2313 26.2036 15.2295 25.7471C15.2295 23.9895 15.2033 22.2275 15.1771 20.464C15.109 15.8844 15.0407 11.2946 15.4308 6.74368C15.6427 4.11416 9.42391 4.97201 9.23321 7.22855C8.84462 11.8173 8.91382 16.4714 8.98226 21.0744C9.00338 22.495 9.02443 23.9107 9.03192 25.3182C9.0351 25.9153 9.03765 26.5153 9.0398 27.1177H5.05907C3.52918 27.0843 2.02088 27.4405 0.715441 28.1434C0.708136 28.1479 0.700645 28.1525 0.692984 28.1571C0.411795 28.3281 -0.0972267 28.6377 0.016219 28.9826C0.132755 29.337 0.810785 29.3929 1.07564 29.3929H9.04651C9.04709 29.6192 9.04766 29.8457 9.04822 30.0724V30.0729C9.05943 34.5627 9.07087 39.147 9.18022 43.6502C9.1963 44.2956 9.20863 44.9477 9.22104 45.6045C9.31496 50.5741 9.41398 55.8133 11.1825 60.4996C11.9886 62.6444 13.2905 64.6191 15.0062 66.2993C16.722 67.9796 18.8144 69.3289 21.1517 70.2624C23.8943 71.3716 26.8704 71.963 29.8884 71.9983C32.9064 72.0336 35.8994 71.5122 38.6745 70.4675C39.7339 70.0852 41.0794 68.8917 40.1789 67.866C39.2784 66.8403 37.2125 67.1294 36.0472 67.5583Z" fill="#0057FF"/>
</g>
<defs>
<clipPath id="clip0_104_3067">
<rect width="51" height="72" fill="white"/>
</clipPath>
</defs>
</svg>
