<svg width="36" height="36" viewBox="0 0 36 36" fill="none" xmlns="http://www.w3.org/2000/svg">
<path fill-rule="evenodd" clip-rule="evenodd" d="M2.04085 2.66254C0 4.9411 0 8.44073 0 15.44V20.56C0 27.5593 0 31.0589 2.04085 33.3375C2.23653 33.5559 2.44407 33.7635 2.66254 33.9592C4.9411 36 8.44073 36 15.44 36H20.56C27.5593 36 31.0589 36 33.3375 33.9592C33.5559 33.7635 33.7635 33.5559 33.9592 33.3375C36 31.0589 36 27.5593 36 20.56V15.44C36 8.44073 36 4.9411 33.9592 2.66254C33.7635 2.44407 33.5559 2.23653 33.3375 2.04085C31.0589 0 27.5593 0 20.56 0H15.44C8.44073 0 4.9411 0 2.66254 2.04085C2.44407 2.23653 2.23653 2.44407 2.04085 2.66254ZM18.9926 6.04974C18.3944 6.00064 17.7916 6.08708 17.2449 6.30034V6.30703C16.936 6.42063 16.068 6.63782 15.7631 6.34044C15.4581 6.04307 16.1384 5.76574 16.3965 5.67219C17.4128 5.29817 18.5072 5.10359 19.6138 5.10014C20.7203 5.0967 21.8163 5.28446 22.8359 5.65214C23.6886 5.96787 24.4538 6.43368 25.0817 7.01919C25.7096 7.60471 26.1859 8.29677 26.4798 9.05023C27.1412 10.7021 27.1718 12.5596 27.2009 14.3252L27.2009 14.3255C27.205 14.5739 27.209 14.8206 27.2148 15.0646C27.2517 16.6527 27.2556 18.2673 27.2595 19.8521C27.261 20.4512 27.2624 21.046 27.2656 21.6335C27.2683 22.1218 27.2752 22.6108 27.2822 23.1003C27.3057 24.7581 27.3293 26.4205 27.1874 28.0689C27.1522 28.4431 26.1943 28.6502 25.8816 28.677C25.5688 28.7037 24.9002 28.7371 24.9315 28.3428C25.074 26.7168 25.0468 25.0771 25.0196 23.4421V23.4421V23.4419C25.0088 22.789 24.998 22.1368 24.998 21.4865C24.9963 21.0692 24.9954 20.651 24.9944 20.2321L24.9944 20.2282L24.9944 20.2271C24.9908 18.6554 24.9872 17.0738 24.9471 15.4922C24.9416 15.2784 24.9372 15.0627 24.9328 14.8464L24.9328 14.8454C24.8993 13.2131 24.8646 11.5216 24.3607 9.95238C24.0629 8.90071 23.3831 7.95663 22.4187 7.25554C21.4544 6.55444 20.255 6.13233 18.9926 6.04974ZM20.1459 29.5758C20.7807 29.6085 21.4158 29.5171 22.0031 29.3085C22.4331 29.1548 23.1956 29.0512 23.5279 29.4187C23.8602 29.7863 23.3637 30.214 22.9727 30.351C21.9485 30.7253 20.844 30.9122 19.7302 30.8995C18.6164 30.8868 17.5181 30.6749 16.5059 30.2775C15.6434 29.9429 14.8712 29.4594 14.238 28.8574C13.6048 28.2553 13.1243 27.5477 12.8268 26.7791C12.1742 25.0999 12.1376 23.2225 12.103 21.4417C12.0984 21.2064 12.0938 20.9727 12.0879 20.7414C12.0475 19.1278 12.0433 17.4849 12.0392 15.8762V15.8761L12.0385 15.6326H9.09691C8.99917 15.6326 8.74894 15.6125 8.70594 15.4855C8.66407 15.3619 8.85192 15.251 8.9557 15.1897L8.96398 15.1848C9.44575 14.9329 10.0024 14.8053 10.567 14.8173H12.0361C12.0353 14.6014 12.0343 14.3864 12.0332 14.1724C12.0304 13.6681 12.0226 13.1608 12.0148 12.6517C11.9896 11.0024 11.964 9.33463 12.1074 7.69033C12.1778 6.88173 14.4728 6.57434 14.3947 7.51658C14.2507 9.14733 14.2759 10.792 14.301 12.433C14.3107 13.065 14.3204 13.6963 14.3204 14.3261L14.322 14.8173H17.2136C17.3113 14.8173 17.5616 14.8407 17.6046 14.9676C17.6476 15.0946 17.4482 15.2082 17.3426 15.2684C16.8614 15.5181 16.3064 15.6445 15.7435 15.6326H14.324L14.324 15.6545C14.3274 17.2035 14.3308 18.762 14.3673 20.3204C14.3721 20.5248 14.376 20.7305 14.3799 20.9371C14.4108 22.5775 14.4429 24.2748 14.9498 25.8536C15.1521 26.5574 15.5329 27.2146 16.0653 27.7787C16.5977 28.3429 17.2687 28.8001 18.0307 29.118C18.6945 29.3862 19.4128 29.5417 20.1459 29.5758Z" fill="#0057FF"/>
</svg>
